<svg xmlns="http://www.w3.org/2000/svg" viewBox="0 0 32 32" role="img" aria-label="Herr Freud Favicon">
  <title>Herr Freud</title>
  <rect width="32" height="32" rx="6" fill="#0D2235"/>
  <!-- Crab body -->
  <ellipse cx="16" cy="17" rx="8" ry="7" fill="#F97316"/>
  <ellipse cx="16" cy="19" rx="5" ry="2.5" fill="#FB923C"/>
  <!-- Jacket -->
  <path d="M 12 19 C 12.5 17, 14 15, 16 14.5 L 16 14.5 C 18 15, 19.5 17, 20 19 L 19.5 21 C 18.5 20.5, 17 20, 16 20 C 15 20, 13.5 20.5, 12.5 21 Z" fill="#1E293B"/>
  <!-- Eye stalks -->
  <path d="M 13 13 C 12 11, 11 9, 11 8" stroke="#FB923C" stroke-width="2" stroke-linecap="round" fill="none"/>
  <circle cx="11" cy="7" r="2.5" fill="#FB923C"/>
  <circle cx="11" cy="7" r="1.8" fill="#FFFEF0"/>
  <path d="M 19 13 C 20 11, 21 9, 21 8" stroke="#FB923C" stroke-width="2" stroke-linecap="round" fill="none"/>
  <circle cx="21" cy="7" r="2.5" fill="#FB923C"/>
  <circle cx="21" cy="7" r="1.8" fill="#FFFEF0"/>
  <!-- Glasses -->
  <circle cx="11" cy="7" r="3" fill="none" stroke="#FCD34D" stroke-width="1"/>
  <circle cx="21" cy="7" r="3" fill="none" stroke="#FCD34D" stroke-width="1"/>
  <path d="M 14 7 C 15 5.5, 17 5.5, 18 7" stroke="#FCD34D" stroke-width="1" fill="none"/>
</svg>
